#!OML:ASF E:\id_vita\Project 1\Capture day 1\Session 1\Female.ASF
:FULLY-SPECIFIED
:DEGREES
604
root 34.8452 16.5219 0.998289 -166.678 -82.142 177.065
lowerback -9.15431 0.965381 -4.30637
upperback -4.67228 1.45305 -0.649645
thorax 0.182831 0.714196 1.87721
lowerneck 16.73 1.76912 -2.15902
upperneck -24.4563 2.88396 4.94834
head -10.7463 0.777033 1.76393
rclavicle -1.50331e-014 7.95139e-015
rhumerus -47.041 -28.2906 -67.2685
rradius 21.1585
rwrist 22.8188
rhand -14.5696 8.51153
rfingers 7.12502
rthumb 11.5799 -21.1485
lclavicle -1.50331e-014 7.95139e-015
lhumerus -97.17 54.9449 -9.51745
lradius 11.2814
lwrist -90.5935
lhand -5.48167 24.7422
lfingers 7.12502
lthumb 20.3306 53.698
rfemur -25.5245 -6.51296 18.343
rtibia 45.7975
rfoot -9.7085 -9.21211
rtoes -21.8899
lfemur -15.1644 -7.03776 -24.3498
ltibia 30.3982
lfoot -24.142 7.89272
ltoes 10.9155
605
root 34.8493 16.5211 1.00673 -166.646 -82.3265 177.006
lowerback -9.01961 0.953022 -4.33246
upperback -4.8044 1.42268 -0.626328
thorax -0.028096 0.704024 1.90872
lowerneck 17.0015 1.79748 -2.26733
upperneck -24.427 2.93004 5.06775
head -10.7941 0.793388 1.81758
rclavicle -2.0773e-014 -1.59028e-015
rhumerus -47.3744 -27.717 -67.3587
rradius 21.4025
rwrist 22.1391
rhand -14.5625 8.46232
rfingers 7.12502
rthumb 11.5867 -21.1974
lclavicle -2.0773e-014 -1.59028e-015
lhumerus -97.3847 53.8984 -10.0179
lradius 11.3034
lwrist -90.6465
lhand -5.26346 25.0206
lfingers 7.12502
lthumb 20.5403 53.954
rfemur -25.5236 -6.6306 18.3303
rtibia 45.8461
rfoot -9.55869 -9.46628
rtoes -21.966
lfemur -15.1817 -7.01837 -24.3593
ltibia 30.3991
lfoot -24.1863 7.81938
ltoes 10.7012
606
root 34.8568 16.5209 1.01202 -166.683 -82.4052 177.128
lowerback -8.85482 0.975273 -4.41821
upperback -4.88418 1.44552 -0.619072
thorax -0.206046 0.721183 1.96156
lowerneck 16.644 1.72682 -2.16014
upperneck -24.2407 2.84366 5.0273
head -10.6497 0.755972 1.79475
rclavicle -7.45443e-016 9.93923e-015
rhumerus -47.4656 -27.4554 -67.4802
rradius 21.5179
rwrist 21.7262
rhand -14.653 8.31955
rfingers 7.12502
rthumb 11.4994 -21.345
lclavicle -7.45443e-016 9.93923e-015
lhumerus -98.0048 53.1396 -11.0998
lradius 11.2895
lwrist -90.9128
lhand -5.16442 25.0084
lfingers 7.12502
lthumb 20.6354 53.9315
rfemur -25.6644 -6.62063 18.3529
rtibia 45.8938
rfoot -9.5394 -9.66716
rtoes -22.3035
lfemur -15.3422 -6.98532 -24.3358
ltibia 30.4494
lfoot -24.2421 7.76355
ltoes 9.9522
607
root 34.8661 16.5158 1.01663 -166.903 -82.4188 177.462
lowerback -9.09654 0.964048 -4.36308
upperback -4.74214 1.44825 -0.673143
thorax 0.0775518 0.714579 1.8821
lowerneck 16.5312 1.70438 -2.08087
upperneck -24.4739 2.84162 5.06562
head -10.7132 0.735785 1.80005
rclavicle 2.86995e-014 1.86858e-014
rhumerus -47.1879 -27.6361 -67.6594
rradius 21.4625
rwrist 21.8615
rhand -14.5688 7.99515
rfingers 7.12502
rthumb 11.5807 -21.6649
lclavicle 2.86995e-014 1.86858e-014
lhumerus -98.9491 52.6711 -12.6761
lradius 11.2777
lwrist -91.2713
lhand -5.20998 25.0383
lfingers 7.12502
lthumb 20.5917 53.9661
rfemur -25.8443 -6.58887 18.4171
rtibia 45.9529
rfoot -9.3078 -10.0141
rtoes -22.9959
lfemur -15.5338 -7.01743 -24.2916
ltibia 30.4839
lfoot -24.2409 7.83618
ltoes 8.9294
608
root 34.8742 16.5087 1.02287 -166.895 -82.4837 177.437
lowerback -8.7452 0.998211 -4.40006
upperback -4.92474 1.46675 -0.713915
thorax -0.306579 0.732256 1.85222
lowerneck 16.6963 1.6307 -1.96561
upperneck -24.4429 2.77279 5.06505
head -10.7295 0.693847 1.78898
rclavicle 4.75344e-014 -1.98785e-015
rhumerus -47.5752 -27.6806 -67.4339
rradius 21.4979
rwrist 21.9248
rhand -14.3849 7.82711
rfingers 7.12502
rthumb 11.7579 -21.8229
lclavicle 4.75344e-014 -1.98785e-015
lhumerus -99.128 51.7204 -13.3641
lradius 11.2872
lwrist -91.4113
lhand -5.09 25.0267
lfingers 7.12502
lthumb 20.7069 53.942
rfemur -25.8622 -6.64835 18.42
rtibia 46.0181
rfoot -9.17143 -9.24627
rtoes -21.9676
lfemur -15.5773 -7.12913 -24.3106
ltibia 30.5052
lfoot -24.1719 7.89965
ltoes 8.98075
